<svg width="1200" height="630" viewBox="0 0 1200 630" fill="none" xmlns="http://www.w3.org/2000/svg">
  <!-- Background gradient -->
  <defs>
    <linearGradient id="bannerGradient" x1="0%" y1="0%" x2="100%" y2="100%">
      <stop offset="0%" style="stop-color:#2D3748;stop-opacity:1" />
      <stop offset="50%" style="stop-color:#4A5568;stop-opacity:1" />
      <stop offset="100%" style="stop-color:#1A202C;stop-opacity:1" />
    </linearGradient>
    <linearGradient id="titleGradient" x1="0%" y1="0%" x2="100%" y2="0%">
      <stop offset="0%" style="stop-color:#4A90E2;stop-opacity:1" />
      <stop offset="50%" style="stop-color:#63B3ED;stop-opacity:1" />
      <stop offset="100%" style="stop-color:#2B6CB0;stop-opacity:1" />
    </linearGradient>
  </defs>
  
  <!-- Background -->
  <rect width="1200" height="630" fill="url(#bannerGradient)"/>
  
  <!-- Decorative grid pattern -->
  <pattern id="grid" patternUnits="userSpaceOnUse" width="40" height="40">
    <path d="M 40 0 L 0 0 0 40" fill="none" stroke="#4A5568" stroke-width="0.5" opacity="0.3"/>
  </pattern>
  <rect width="1200" height="630" fill="url(#grid)"/>
  
  <!-- Icon (scaled up) -->
  <g transform="translate(80, 150) scale(2.5)">
    <circle cx="64" cy="64" r="60" fill="url(#titleGradient)" stroke="#2C5282" stroke-width="2"/>
    
    <!-- Large source file -->
    <rect x="16" y="32" width="28" height="36" rx="3" fill="#FFFFFF" stroke="#4A5568" stroke-width="1.5" opacity="0.95"/>
    <rect x="20" y="36" width="20" height="2" rx="1" fill="#4A90E2"/>
    <rect x="20" y="40" width="16" height="2" rx="1" fill="#4A90E2"/>
    <rect x="20" y="44" width="18" height="2" rx="1" fill="#4A90E2"/>
    <rect x="20" y="48" width="14" height="2" rx="1" fill="#4A90E2"/>
    <rect x="20" y="52" width="20" height="2" rx="1" fill="#4A90E2"/>
    <rect x="20" y="56" width="12" height="2" rx="1" fill="#4A90E2"/>
    <rect x="20" y="60" width="16" height="2" rx="1" fill="#4A90E2"/>
    
    <!-- Arrow -->
    <path d="M52 48 L68 48 M64 44 L68 48 L64 52" stroke="#2ECC71" stroke-width="3" fill="none" stroke-linecap="round" stroke-linejoin="round"/>
    
    <!-- Three separate files -->
    <rect x="84" y="28" width="22" height="18" rx="2" fill="#FFFFFF" stroke="#4A5568" stroke-width="1" opacity="0.95"/>
    <rect x="87" y="31" width="16" height="1.5" rx="0.75" fill="#E53E3E"/>
    <rect x="87" y="34" width="12" height="1.5" rx="0.75" fill="#E53E3E"/>
    
    <rect x="84" y="50" width="22" height="18" rx="2" fill="#FFFFFF" stroke="#4A5568" stroke-width="1" opacity="0.95"/>
    <rect x="87" y="53" width="16" height="1.5" rx="0.75" fill="#38A169"/>
    <rect x="87" y="56" width="12" height="1.5" rx="0.75" fill="#38A169"/>
    
    <rect x="84" y="72" width="22" height="18" rx="2" fill="#FFFFFF" stroke="#4A5568" stroke-width="1" opacity="0.95"/>
    <rect x="87" y="75" width="16" height="1.5" rx="0.75" fill="#D69E2E"/>
    <rect x="87" y="78" width="12" height="1.5" rx="0.75" fill="#D69E2E"/>
    
    <!-- Export symbol -->
    <circle cx="38" cy="38" r="2" fill="#2ECC71"/>
  </g>
  
  <!-- Title -->
  <text x="400" y="200" font-family="Arial, sans-serif" font-size="60" font-weight="bold" fill="url(#titleGradient)">
    Separation of Concerns
  </text>
  <text x="400" y="260" font-family="Arial, sans-serif" font-size="48" font-weight="300" fill="url(#titleGradient)">
    Migrator
  </text>
  
  <!-- Subtitle -->
  <text x="400" y="330" font-family="Arial, sans-serif" font-size="24" fill="#E2E8F0">
    Automatically split your TypeScript functions into separate files
  </text>
  
  <!-- Features -->
  <g transform="translate(400, 380)">
    <text x="0" y="0" font-family="Arial, sans-serif" font-size="18" font-weight="600" fill="#4A90E2">✨ Export-Only Processing</text>
    <text x="0" y="30" font-family="Arial, sans-serif" font-size="18" font-weight="600" fill="#38A169">🔄 Multiple Export Patterns</text>
    <text x="0" y="60" font-family="Arial, sans-serif" font-size="18" font-weight="600" fill="#E53E3E">⚡ Fast Performance</text>
    <text x="0" y="90" font-family="Arial, sans-serif" font-size="18" font-weight="600" fill="#D69E2E">🎯 Smart Dependencies</text>
  </g>
  
  <!-- VS Code branding -->
  <text x="400" y="580" font-family="Arial, sans-serif" font-size="16" fill="#A0AEC0">
    for Visual Studio Code
  </text>
</svg>
