<svg xmlns="http://www.w3.org/2000/svg" width="1366" height="768" viewBox="0 0 1366 768">
  <defs>
    <linearGradient id="titleBarGradient" x1="0%" y1="0%" x2="0%" y2="100%">
      <stop offset="0%" style="stop-color:#F3F3F3;stop-opacity:1" />
      <stop offset="100%" style="stop-color:#E8E8E8;stop-opacity:1" />
    </linearGradient>
  </defs>
  
  <!-- Light Theme Background -->
  <rect width="1366" height="768" fill="#FFFFFF"/>
  
  <!-- Title Bar -->
  <rect width="1366" height="35" fill="url(#titleBarGradient)"/>
  
  <!-- Title Bar Traffic Lights -->
  <g transform="translate(12, 12)">
    <circle cx="6" cy="6" r="6" fill="#FF5F57"/>
    <circle cx="26" cy="6" r="6" fill="#FFBD2E"/>
    <circle cx="46" cy="6" r="6" fill="#28CA42"/>
  </g>
  
  <!-- Title Bar Text -->
  <text x="683" y="22" font-family="-apple-system, BlinkMacSystemFont, 'Segoe UI', sans-serif" 
        font-size="13" fill="#424242" text-anchor="middle">
    index.ts - Visual Studio Code
  </text>
  
  <!-- Activity Bar -->
  <rect x="0" y="35" width="48" height="733" fill="#2C2C2C"/>
  
  <!-- Activity Bar Icons -->
  <g fill="#FFFFFF" opacity="0.8">
    <!-- Explorer Icon (Active) -->
    <rect x="13" y="50" width="22" height="2" rx="1"/>
    <rect x="13" y="54" width="16" height="2" rx="1"/>
    <rect x="13" y="58" width="18" height="2" rx="1"/>
    <rect x="13" y="62" width="14" height="2" rx="1"/>
  </g>
  
  <!-- Explorer Sidebar -->
  <rect x="48" y="35" width="300" height="733" fill="#F8F8F8"/>
  
  <!-- Explorer Header -->
  <rect x="48" y="35" width="300" height="35" fill="#EEEEEE"/>
  <text x="60" y="55" font-family="-apple-system, BlinkMacSystemFont, 'Segoe UI', sans-serif" 
        font-size="12" fill="#424242" font-weight="600">
    EXPLORER
  </text>
  
  <!-- File Tree (Expanded) -->
  <g fill="#424242" font-family="-apple-system, BlinkMacSystemFont, 'Segoe UI', sans-serif" font-size="13">
    <!-- Project folder -->
    <g transform="translate(60, 85)">
      <path d="M0 4 L4 0 L16 0 L16 12 L0 12 Z" fill="#DCB67A"/>
      <text x="22" y="9" font-weight="600">PROJECT</text>
    </g>
    
    <!-- src folder -->
    <g transform="translate(72, 105)">
      <path d="M0 4 L4 0 L16 0 L16 12 L0 12 Z" fill="#DCB67A"/>
      <text x="22" y="9">src</text>
    </g>
    
    <!-- utils folder (NEW - highlighted with success color) -->
    <g transform="translate(84, 125)">
      <path d="M0 4 L4 0 L16 0 L16 12 L0 12 Z" fill="#28A745"/>
      <path d="M4 8 L8 4 L12 8" fill="none" stroke="white" stroke-width="1"/>
      <text x="22" y="9" font-weight="600" fill="#28A745">utils</text>
      <text x="60" y="9" font-size="10" fill="#28A745" font-style="italic">(new)</text>
    </g>
    
    <!-- Expanded utils folder contents -->
    <g transform="translate(96, 145)">
      <!-- fetch-user-data.ts -->
      <rect x="0" y="0" width="16" height="12" fill="#4A90E2"/>
      <text x="2" y="9" fill="white" font-size="8" font-weight="bold">TS</text>
      <text x="22" y="9">fetch-user-data.ts</text>
    </g>
    
    <g transform="translate(96, 165)">
      <!-- validate-email.ts -->
      <rect x="0" y="0" width="16" height="12" fill="#4A90E2"/>
      <text x="2" y="9" fill="white" font-size="8" font-weight="bold">TS</text>
      <text x="22" y="9">validate-email.ts</text>
    </g>
    
    <g transform="translate(96, 185)">
      <!-- user-manager.ts -->
      <rect x="0" y="0" width="16" height="12" fill="#4A90E2"/>
      <text x="2" y="9" fill="white" font-size="8" font-weight="bold">TS</text>
      <text x="22" y="9">user-manager.ts</text>
    </g>
    
    <g transform="translate(96, 205)">
      <!-- types.ts -->
      <rect x="0" y="0" width="16" height="12" fill="#4A90E2"/>
      <text x="2" y="9" fill="white" font-size="8" font-weight="bold">TS</text>
      <text x="22" y="9">types.ts</text>
    </g>
    
    <g transform="translate(96, 225)">
      <!-- index.ts (highlighted as active) -->
      <rect x="-12" y="-6" width="240" height="18" fill="#E3F2FD" rx="2"/>
      <rect x="0" y="0" width="16" height="12" fill="#4A90E2"/>
      <text x="2" y="9" fill="white" font-size="8" font-weight="bold">TS</text>
      <text x="22" y="9" font-weight="500" fill="#1565C0">index.ts</text>
    </g>
    
    <!-- Original utils.ts (grayed out - will be removed) -->
    <g transform="translate(84, 255)">
      <rect x="0" y="0" width="16" height="12" fill="#CCCCCC"/>
      <text x="2" y="9" fill="white" font-size="8">TS</text>
      <text x="22" y="9" opacity="0.5" text-decoration="line-through">utils.ts</text>
    </g>
    
    <!-- Other files -->
    <g transform="translate(84, 275)">
      <rect x="0" y="0" width="16" height="12" fill="#4A90E2"/>
      <text x="2" y="9" fill="white" font-size="8" font-weight="bold">TS</text>
      <text x="22" y="9">components.ts</text>
    </g>
    
    <g transform="translate(84, 295)">
      <rect x="0" y="0" width="16" height="12" fill="#4A90E2"/>
      <text x="2" y="9" fill="white" font-size="8" font-weight="bold">TS</text>
      <text x="22" y="9">types.ts</text>
    </g>
  </g>
  
  <!-- Success Notification -->
  <g transform="translate(400, 80)">
    <!-- Notification shadow -->
    <rect x="2" y="2" width="380" height="60" fill="rgba(0,0,0,0.1)" rx="6"/>
    
    <!-- Notification background -->
    <rect width="380" height="60" fill="white" stroke="#28A745" stroke-width="2" rx="6"/>
    
    <!-- Success icon -->
    <circle cx="25" cy="30" r="12" fill="#28A745"/>
    <path d="M19 30 L23 34 L31 24" fill="none" stroke="white" stroke-width="2" stroke-linecap="round"/>
    
    <!-- Notification text -->
    <text x="50" y="24" font-family="-apple-system, BlinkMacSystemFont, 'Segoe UI', sans-serif" 
          font-size="14" font-weight="600" fill="#28A745">
      Migration completed successfully!
    </text>
    <text x="50" y="42" font-family="-apple-system, BlinkMacSystemFont, 'Segoe UI', sans-serif" 
          font-size="12" fill="#666666">
      Created 5 files with proper separation of concerns
    </text>
  </g>
  
  <!-- Editor Area -->
  <rect x="348" y="35" width="1018" height="733" fill="#FFFFFF"/>
  
  <!-- Editor Tab Bar -->
  <rect x="348" y="35" width="1018" height="35" fill="#F8F8F8"/>
  
  <!-- Active Tab -->
  <rect x="348" y="35" width="140" height="35" fill="#FFFFFF" stroke="#CCCCCC" stroke-width="1"/>
  <text x="418" y="55" font-family="-apple-system, BlinkMacSystemFont, 'Segoe UI', sans-serif" 
        font-size="13" fill="#424242" text-anchor="middle">
    index.ts
  </text>
  
  <!-- Additional Tabs -->
  <rect x="488" y="35" width="180" height="35" fill="#F8F8F8" stroke="#CCCCCC" stroke-width="1"/>
  <text x="578" y="55" font-family="-apple-system, BlinkMacSystemFont, 'Segoe UI', sans-serif" 
        font-size="13" fill="#666666" text-anchor="middle">
    fetch-user-data.ts
  </text>
  
  <rect x="668" y="35" width="160" height="35" fill="#F8F8F8" stroke="#CCCCCC" stroke-width="1"/>
  <text x="748" y="55" font-family="-apple-system, BlinkMacSystemFont, 'Segoe UI', sans-serif" 
        font-size="13" fill="#666666" text-anchor="middle">
    validate-email.ts
  </text>
  
  <!-- Editor Content -->
  <rect x="348" y="70" width="1018" height="678" fill="#FFFFFF"/>
  
  <!-- Line Numbers -->
  <rect x="348" y="70" width="50" height="678" fill="#FAFAFA"/>
  <g fill="#858585" font-family="'SF Mono', 'Monaco', 'Consolas', monospace" font-size="12">
    <text x="385" y="90" text-anchor="end">1</text>
    <text x="385" y="108" text-anchor="end">2</text>
    <text x="385" y="126" text-anchor="end">3</text>
    <text x="385" y="144" text-anchor="end">4</text>
    <text x="385" y="162" text-anchor="end">5</text>
    <text x="385" y="180" text-anchor="end">6</text>
  </g>
  
  <!-- Index.ts Code Content -->
  <g font-family="'SF Mono', 'Monaco', 'Consolas', monospace" font-size="13">
    <!-- Header comment -->
    <text x="410" y="90" fill="#008000">// Auto-generated index file</text>
    <text x="410" y="108" fill="#008000">// Re-exports all functions, classes, and types</text>
    
    <!-- Export statements -->
    <text x="410" y="144" fill="#AF00DB">export</text>
    <text x="460" y="144" fill="#424242">{ fetchUserData }</text>
    <text x="600" y="144" fill="#AF00DB">from</text>
    <text x="640" y="144" fill="#032F62">'./fetch-user-data'</text>
    
    <text x="410" y="162" fill="#AF00DB">export</text>
    <text x="460" y="162" fill="#424242">{ validateEmail }</text>
    <text x="590" y="162" fill="#AF00DB">from</text>
    <text x="630" y="162" fill="#032F62">'./validate-email'</text>
    
    <text x="410" y="180" fill="#AF00DB">export</text>
    <text x="460" y="180" fill="#424242">{ UserManager }</text>
    <text x="570" y="180" fill="#AF00DB">from</text>
    <text x="610" y="180" fill="#032F62">'./user-manager'</text>
    
    <text x="410" y="198" fill="#AF00DB">export</text>
    <text x="460" y="198" fill="#424242">* </text>
    <text x="476" y="198" fill="#AF00DB">from</text>
    <text x="516" y="198" fill="#032F62">'./types'</text>
  </g>
  
  <!-- Status Bar -->
  <rect x="0" y="748" width="1366" height="20" fill="#007ACC"/>
  
  <!-- Status Bar Items -->
  <text x="12" y="760" font-family="-apple-system, BlinkMacSystemFont, 'Segoe UI', sans-serif" 
        font-size="12" fill="#FFFFFF">
    main
  </text>
  
  <text x="1354" y="760" font-family="-apple-system, BlinkMacSystemFont, 'Segoe UI', sans-serif" 
        font-size="12" fill="#FFFFFF" text-anchor="end">
    TypeScript
  </text>
  
  <!-- Highlight arrows showing the transformation -->
  <g stroke="#28A745" stroke-width="3" fill="none" opacity="0.8">
    <!-- Arrow from old utils.ts to new utils folder -->
    <path d="M72 260 Q 120 240 78 130" stroke-linecap="round" marker-end="url(#arrowhead)"/>
  </g>
  
  <defs>
    <marker id="arrowhead" markerWidth="10" markerHeight="7" 
            refX="10" refY="3.5" orient="auto" fill="#28A745">
      <polygon points="0 0, 10 3.5, 0 7" />
    </marker>
  </defs>
</svg>
