<svg xmlns="http://www.w3.org/2000/svg" width="1366" height="768" viewBox="0 0 1366 768">
  <defs>
    <linearGradient id="titleBarGradient" x1="0%" y1="0%" x2="0%" y2="100%">
      <stop offset="0%" style="stop-color:#F3F3F3;stop-opacity:1" />
      <stop offset="100%" style="stop-color:#E8E8E8;stop-opacity:1" />
    </linearGradient>
  </defs>
  
  <!-- Light Theme Background -->
  <rect width="1366" height="768" fill="#FFFFFF"/>
  
  <!-- Title Bar -->
  <rect width="1366" height="35" fill="url(#titleBarGradient)"/>
  
  <!-- Title Bar Traffic Lights -->
  <g transform="translate(12, 12)">
    <circle cx="6" cy="6" r="6" fill="#FF5F57"/>
    <circle cx="26" cy="6" r="6" fill="#FFBD2E"/>
    <circle cx="46" cy="6" r="6" fill="#28CA42"/>
  </g>
  
  <!-- Title Bar Text -->
  <text x="683" y="22" font-family="-apple-system, BlinkMacSystemFont, 'Segoe UI', sans-serif" 
        font-size="13" fill="#424242" text-anchor="middle">
    utils.ts - Visual Studio Code
  </text>
  
  <!-- Activity Bar -->
  <rect x="0" y="35" width="48" height="733" fill="#2C2C2C"/>
  
  <!-- Activity Bar Icons -->
  <g fill="#FFFFFF" opacity="0.8">
    <!-- Explorer Icon (Active) -->
    <rect x="13" y="50" width="22" height="2" rx="1"/>
    <rect x="13" y="54" width="16" height="2" rx="1"/>
    <rect x="13" y="58" width="18" height="2" rx="1"/>
    <rect x="13" y="62" width="14" height="2" rx="1"/>
  </g>
  
  <!-- Explorer Sidebar -->
  <rect x="48" y="35" width="300" height="733" fill="#F8F8F8"/>
  
  <!-- Explorer Header -->
  <rect x="48" y="35" width="300" height="35" fill="#EEEEEE"/>
  <text x="60" y="55" font-family="-apple-system, BlinkMacSystemFont, 'Segoe UI', sans-serif" 
        font-size="12" fill="#424242" font-weight="600">
    EXPLORER
  </text>
  
  <!-- File Tree -->
  <g fill="#424242" font-family="-apple-system, BlinkMacSystemFont, 'Segoe UI', sans-serif" font-size="13">
    <!-- Project folder -->
    <g transform="translate(60, 85)">
      <path d="M0 4 L4 0 L16 0 L16 12 L0 12 Z" fill="#DCB67A"/>
      <text x="22" y="9" font-weight="600">PROJECT</text>
    </g>
    
    <!-- src folder -->
    <g transform="translate(72, 105)">
      <path d="M0 4 L4 0 L16 0 L16 12 L0 12 Z" fill="#DCB67A"/>
      <text x="22" y="9">src</text>
    </g>
    
    <!-- utils.ts file (highlighted) -->
    <g transform="translate(84, 125)">
      <rect x="-12" y="-6" width="264" height="18" fill="#E3F2FD" rx="2"/>
      <rect x="0" y="0" width="16" height="12" fill="#4A90E2"/>
      <text x="2" y="9" fill="white" font-size="8" font-weight="bold">TS</text>
      <text x="22" y="9" font-weight="500" fill="#1565C0">utils.ts</text>
    </g>
    
    <!-- Other files -->
    <g transform="translate(84, 145)">
      <rect x="0" y="0" width="16" height="12" fill="#4A90E2"/>
      <text x="2" y="9" fill="white" font-size="8" font-weight="bold">TS</text>
      <text x="22" y="9">components.ts</text>
    </g>
    
    <g transform="translate(84, 165)">
      <rect x="0" y="0" width="16" height="12" fill="#4A90E2"/>
      <text x="2" y="9" fill="white" font-size="8" font-weight="bold">TS</text>
      <text x="22" y="9">types.ts</text>
    </g>
  </g>
  
  <!-- Right-click Context Menu -->
  <g transform="translate(200, 220)">
    <!-- Menu shadow -->
    <rect x="2" y="2" width="200" height="160" fill="rgba(0,0,0,0.15)" rx="4"/>
    
    <!-- Menu background -->
    <rect width="200" height="160" fill="white" stroke="#CCCCCC" stroke-width="1" rx="4"/>
    
    <!-- Menu items -->
    <g fill="#424242" font-family="-apple-system, BlinkMacSystemFont, 'Segoe UI', sans-serif" font-size="13">
      <text x="12" y="20">Open</text>
      <text x="12" y="40">Open With...</text>
      <line x1="8" y1="48" x2="192" y2="48" stroke="#E0E0E0"/>
      <text x="12" y="68">Cut</text>
      <text x="12" y="88">Copy</text>
      <text x="12" y="108">Paste</text>
      <line x1="8" y1="116" x2="192" y2="116" stroke="#E0E0E0"/>
      
      <!-- Highlighted menu item -->
      <rect x="4" y="122" width="192" height="20" fill="#4A90E2" rx="2"/>
      <text x="12" y="136" fill="white" font-weight="500">Migrate to Separation of Concerns</text>
    </g>
  </g>
  
  <!-- Editor Area -->
  <rect x="348" y="35" width="1018" height="733" fill="#FFFFFF"/>
  
  <!-- Editor Tab Bar -->
  <rect x="348" y="35" width="1018" height="35" fill="#F8F8F8"/>
  
  <!-- Active Tab -->
  <rect x="348" y="35" width="140" height="35" fill="#FFFFFF" stroke="#CCCCCC" stroke-width="1"/>
  <text x="418" y="55" font-family="-apple-system, BlinkMacSystemFont, 'Segoe UI', sans-serif" 
        font-size="13" fill="#424242" text-anchor="middle">
    utils.ts
  </text>
  
  <!-- Editor Content -->
  <rect x="348" y="70" width="1018" height="678" fill="#FFFFFF"/>
  
  <!-- Line Numbers -->
  <rect x="348" y="70" width="50" height="678" fill="#FAFAFA"/>
  <g fill="#858585" font-family="'SF Mono', 'Monaco', 'Consolas', monospace" font-size="12">
    <text x="385" y="90" text-anchor="end">1</text>
    <text x="385" y="108" text-anchor="end">2</text>
    <text x="385" y="126" text-anchor="end">3</text>
    <text x="385" y="144" text-anchor="end">4</text>
    <text x="385" y="162" text-anchor="end">5</text>
    <text x="385" y="180" text-anchor="end">6</text>
    <text x="385" y="198" text-anchor="end">7</text>
    <text x="385" y="216" text-anchor="end">8</text>
    <text x="385" y="234" text-anchor="end">9</text>
    <text x="385" y="252" text-anchor="end">10</text>
  </g>
  
  <!-- Code Content -->
  <g font-family="'SF Mono', 'Monaco', 'Consolas', monospace" font-size="13">
    <!-- Import statements -->
    <text x="410" y="90" fill="#AF00DB">import</text>
    <text x="460" y="90" fill="#424242">{ useState, useEffect }</text>
    <text x="650" y="90" fill="#AF00DB">from</text>
    <text x="690" y="90" fill="#032F62">'react'</text>
    
    <text x="410" y="108" fill="#AF00DB">import</text>
    <text x="460" y="108" fill="#424242">* </text>
    <text x="476" y="108" fill="#AF00DB">as</text>
    <text x="500" y="108" fill="#424242">fs</text>
    <text x="520" y="108" fill="#AF00DB">from</text>
    <text x="560" y="108" fill="#032F62">'fs'</text>
    
    <!-- Type definitions -->
    <text x="410" y="144" fill="#AF00DB">type</text>
    <text x="450" y="144" fill="#267F99">TUser</text>
    <text x="500" y="144" fill="#424242">= {</text>
    
    <text x="430" y="162" fill="#E36209">id</text>
    <text x="460" y="162" fill="#424242">:</text>
    <text x="470" y="162" fill="#267F99">number</text>
    
    <text x="430" y="180" fill="#E36209">name</text>
    <text x="470" y="180" fill="#424242">:</text>
    <text x="480" y="180" fill="#267F99">string</text>
    
    <text x="430" y="198" fill="#E36209">email</text>
    <text x="475" y="198" fill="#424242">:</text>
    <text x="485" y="198" fill="#267F99">string</text>
    
    <text x="410" y="216" fill="#424242">}</text>
    
    <!-- Export function -->
    <text x="410" y="252" fill="#AF00DB">export</text>
    <text x="460" y="252" fill="#AF00DB">function</text>
    <text x="530" y="252" fill="#795E26">fetchUserData</text>
    <text x="650" y="252" fill="#424242">(userId:</text>
    <text x="720" y="252" fill="#267F99">number</text>
    <text x="780" y="252" fill="#424242">) {</text>
    
    <text x="430" y="270" fill="#008000">// Function implementation...</text>
    
    <text x="410" y="288" fill="#424242">}</text>
  </g>
  
  <!-- Status Bar -->
  <rect x="0" y="748" width="1366" height="20" fill="#007ACC"/>
  
  <!-- Status Bar Items -->
  <text x="12" y="760" font-family="-apple-system, BlinkMacSystemFont, 'Segoe UI', sans-serif" 
        font-size="12" fill="#FFFFFF">
    main
  </text>
  
  <text x="1354" y="760" font-family="-apple-system, BlinkMacSystemFont, 'Segoe UI', sans-serif" 
        font-size="12" fill="#FFFFFF" text-anchor="end">
    TypeScript
  </text>
  
  <!-- Highlight overlay for context menu interaction -->
  <rect x="84" y="119" width="264" height="18" fill="rgba(74,144,226,0.1)" rx="2"/>
</svg>
